<?xml version="1.0" standalone="no"?>
<!DOCTYPE svg PUBLIC "-//W3C//DTD SVG 20010904//EN"
 "http://www.w3.org/TR/2001/REC-SVG-20010904/DTD/svg10.dtd">
<svg version="1.0" xmlns="http://www.w3.org/2000/svg"
 width="700.000000pt" height="700.000000pt" viewBox="0 0 700.000000 700.000000"
 preserveAspectRatio="xMidYMid meet">
<metadata>
Created by potrace 1.11, written by Peter Selinger 2001-2013
</metadata>
<g transform="translate(0.000000,700.000000) scale(0.100000,-0.100000)"
fill="#000000" stroke="none">
<path d="M2743 5809 c-266 -39 -502 -112 -733 -229 -115 -58 -270 -148 -290
-170 -3 -3 -17 -13 -31 -22 -68 -43 -196 -154 -309 -268 -194 -195 -326 -381
-451 -635 -68 -140 -157 -387 -179 -501 -11 -56 -15 -62 -58 -89 -114 -72
-293 -215 -386 -309 -117 -117 -185 -214 -229 -324 -29 -70 -32 -87 -32 -187
0 -103 2 -114 32 -178 88 -186 319 -318 643 -367 36 -6 76 -12 90 -14 14 -3
34 -5 46 -5 16 -1 33 -26 76 -114 124 -246 269 -449 458 -637 378 -378 850
-609 1395 -685 72 -11 449 -13 520 -4 39 5 93 11 120 14 28 4 57 8 65 10 8 2
29 7 45 10 269 47 588 174 830 332 95 62 256 184 301 228 12 11 43 41 70 66
264 247 491 611 611 979 29 89 83 321 83 357 0 78 -86 126 -158 89 -35 -18
-53 -53 -67 -128 -18 -91 -31 -142 -66 -250 -22 -68 -48 -142 -59 -165 -11
-24 -20 -47 -20 -53 0 -17 -62 -80 -104 -105 -116 -68 -217 -24 -359 157 -83
107 -120 144 -182 183 -128 82 -273 92 -405 28 -79 -38 -185 -148 -242 -253
-99 -181 -99 -181 -235 -215 -118 -29 -161 -46 -229 -91 -152 -101 -318 -323
-389 -522 -56 -159 -59 -287 -11 -440 7 -20 5 -22 -21 -18 -15 2 -55 7 -88 11
-92 10 -280 52 -380 84 -325 104 -611 278 -857 521 -132 130 -216 233 -304
370 -64 100 -129 218 -123 225 2 2 76 6 164 10 88 4 171 8 185 10 14 2 50 6
80 9 134 15 228 29 315 46 68 14 83 16 135 25 25 4 99 20 165 37 66 16 133 32
148 35 110 18 596 175 852 276 354 138 813 352 1075 501 30 17 72 40 93 51 54
29 78 57 84 103 4 31 1 47 -16 71 -45 63 -96 58 -246 -24 -224 -124 -578 -296
-815 -397 -25 -10 -54 -23 -65 -28 -75 -35 -396 -154 -580 -215 -189 -63 -635
-182 -745 -199 -19 -3 -46 -8 -60 -11 -14 -3 -41 -8 -60 -11 -19 -3 -42 -7
-50 -9 -8 -2 -37 -7 -65 -10 -27 -4 -57 -8 -65 -10 -8 -3 -49 -7 -90 -11 -41
-3 -78 -8 -81 -10 -15 -9 -424 -25 -446 -17 -28 11 -104 304 -119 458 -3 33
-7 71 -10 85 -6 36 -6 326 1 385 25 239 76 440 163 645 38 91 47 102 102 127
86 39 217 22 360 -49 115 -56 236 -175 269 -263 33 -88 26 -144 -29 -237 -75
-125 -118 -220 -136 -297 -55 -242 82 -404 381 -447 65 -10 330 -11 418 -1
277 29 458 169 523 404 19 68 27 266 14 338 -18 103 -22 210 -10 269 21 102
68 166 256 351 147 144 178 180 203 234 25 53 30 74 27 125 -4 83 -29 136
-139 284 -112 151 -129 183 -131 238 -1 55 37 110 123 180 l63 51 57 -9 c175
-26 391 -94 570 -179 141 -67 184 -74 226 -35 40 37 47 77 23 125 -16 32 -33
47 -91 76 -170 87 -416 172 -602 209 -179 36 -268 44 -490 43 -138 0 -238 -6
-322 -18z m309 -198 c4 -1 -9 -24 -28 -52 -19 -28 -34 -58 -34 -66 0 -8 -3
-12 -7 -10 -5 3 -9 -16 -11 -41 -1 -25 -8 -50 -15 -54 -6 -4 -7 -8 -2 -8 6 0
11 -9 12 -20 1 -13 -2 -18 -10 -13 -9 5 -9 3 -1 -8 6 -8 16 -34 23 -59 18 -67
48 -126 92 -186 21 -29 39 -55 39 -58 0 -3 11 -17 26 -33 43 -47 104 -144 104
-167 -1 -28 -41 -80 -114 -147 -33 -30 -82 -75 -109 -101 -28 -26 -54 -45 -59
-42 -5 3 -7 1 -6 -4 2 -5 -14 -30 -35 -55 -93 -112 -150 -223 -164 -317 -3
-19 -10 -38 -17 -42 -8 -6 -8 -8 1 -8 7 0 9 -9 4 -27 -4 -15 -4 -47 -1 -70 4
-24 3 -46 -2 -49 -4 -3 -8 -11 -8 -17 0 -7 4 -6 10 3 7 11 10 3 12 -30 3 -80
4 -85 12 -98 10 -16 6 -211 -5 -218 -5 -3 -7 -9 -4 -14 10 -16 -36 -114 -68
-148 -39 -41 -88 -72 -123 -78 -15 -3 -34 -9 -43 -13 -32 -17 -120 -25 -291
-25 -136 0 -189 4 -240 17 -66 18 -132 55 -124 69 3 4 0 8 -6 8 -26 0 5 161
35 182 5 4 7 8 2 8 -4 0 2 18 13 40 12 23 25 38 30 35 5 -3 7 0 5 7 -3 8 4 24
15 36 11 12 21 25 21 29 1 5 9 24 19 43 24 48 45 112 41 129 -1 7 1 11 6 8 4
-3 8 24 8 59 0 35 -3 64 -6 64 -3 0 -6 6 -7 13 -1 12 -2 19 -17 71 -9 33 -45
102 -80 153 -13 20 -22 40 -19 45 3 5 1 7 -4 6 -5 -2 -41 27 -81 65 -39 37
-73 67 -76 67 -2 0 -31 17 -64 39 -62 39 -182 90 -261 110 -38 10 -68 14 -148
20 -9 1 0 21 24 54 21 28 41 54 44 57 3 3 18 23 34 45 43 58 311 322 335 330
12 3 21 10 21 14 0 15 169 123 181 115 7 -4 9 -3 6 3 -6 10 7 21 63 53 31 18
169 85 225 110 117 51 317 115 400 127 17 2 37 6 45 9 8 3 33 8 55 10 22 3 46
7 54 9 7 3 59 8 115 11 55 4 102 8 103 9 3 1 19 0 55 -4z m-2357 -2163 c0
-162 8 -313 20 -358 2 -8 6 -33 10 -55 8 -60 56 -257 67 -278 9 -17 6 -18 -44
-12 -169 21 -359 101 -436 184 -104 115 -60 286 123 479 68 72 240 221 255
222 3 0 5 -82 5 -182z m3575 -820 c44 -19 95 -67 147 -138 35 -47 68 -87 111
-135 19 -21 75 -60 153 -108 30 -18 90 -35 137 -39 17 -1 32 -5 32 -8 0 -7
-37 -56 -62 -82 -10 -10 -18 -21 -18 -25 -1 -16 -71 -88 -83 -85 -7 2 -9 1 -5
-3 9 -10 -33 -55 -45 -48 -6 3 -7 1 -3 -5 3 -6 -7 -23 -23 -39 -16 -15 -52
-50 -80 -77 -28 -27 -51 -46 -51 -42 0 5 -9 -2 -20 -15 -10 -13 -19 -21 -20
-18 0 3 -19 -11 -42 -33 -23 -21 -43 -36 -45 -34 -2 2 -18 -9 -36 -25 -17 -16
-37 -29 -44 -29 -7 0 -13 -4 -13 -10 0 -5 -7 -10 -15 -10 -8 0 -15 -4 -15 -10
0 -5 -5 -10 -11 -10 -6 0 -24 -9 -40 -21 -16 -11 -34 -17 -40 -13 -7 4 -9 3
-6 -2 5 -10 -92 -63 -188 -104 -27 -12 -59 -25 -70 -31 -42 -19 -138 -49 -145
-44 -5 3 -10 0 -12 -6 -2 -7 -18 -12 -35 -13 -17 0 -29 -4 -26 -8 2 -5 -4 -8
-14 -9 -10 0 -29 -3 -43 -6 -14 -3 -35 -6 -47 -7 -13 -1 -23 -4 -23 -8 0 -15
-90 -20 -108 -7 -15 13 -16 12 -4 -2 11 -15 8 -17 -27 -21 -25 -2 -37 0 -33 7
3 5 -1 5 -9 -1 -8 -6 -21 -12 -29 -12 -8 0 -45 -3 -82 -7 -66 -6 -67 -5 -90
26 -13 17 -22 35 -20 40 1 5 -2 9 -7 9 -8 0 -15 20 -27 75 -19 88 7 212 69
327 53 98 57 103 69 100 7 -2 10 0 5 4 -18 18 113 169 188 216 47 29 140 62
154 54 5 -4 11 -2 13 4 1 5 19 12 39 14 49 6 137 50 179 89 46 42 78 87 119
167 46 89 94 160 109 160 6 0 12 6 12 13 0 17 86 61 101 51 8 -5 9 -3 4 6 -10
17 67 9 115 -12z"/>
<path d="M2835 5441 c-3 -5 -2 -12 3 -15 5 -3 9 1 9 9 0 17 -3 19 -12 6z"/>
<path d="M2106 5362 c-3 -5 1 -9 9 -9 8 0 12 4 9 9 -3 4 -7 8 -9 8 -2 0 -6 -4
-9 -8z"/>
<path d="M2115 5201 c-3 -5 -2 -12 3 -15 5 -3 9 1 9 9 0 17 -3 19 -12 6z"/>
<path d="M2675 5201 c-3 -5 -2 -12 3 -15 5 -3 9 1 9 9 0 17 -3 19 -12 6z"/>
<path d="M2826 5202 c-3 -5 1 -9 9 -9 8 0 12 4 9 9 -3 4 -7 8 -9 8 -2 0 -6 -4
-9 -8z"/>
<path d="M1793 5165 c0 -8 4 -15 9 -15 4 0 8 4 8 9 0 6 -4 12 -8 15 -5 3 -9
-1 -9 -9z"/>
<path d="M2346 5122 c-3 -5 1 -9 9 -9 8 0 12 4 9 9 -3 4 -7 8 -9 8 -2 0 -6 -4
-9 -8z"/>
<path d="M2835 5051 c-3 -5 -2 -12 3 -15 5 -3 9 1 9 9 0 17 -3 19 -12 6z"/>
<path d="M2230 5040 c0 -5 5 -10 10 -10 6 0 10 5 10 10 0 6 -4 10 -10 10 -5 0
-10 -4 -10 -10z"/>
<path d="M2426 5038 c3 -5 10 -6 15 -3 13 9 11 12 -6 12 -8 0 -12 -4 -9 -9z"/>
<path d="M2996 5042 c-3 -5 1 -9 9 -9 8 0 12 4 9 9 -3 4 -7 8 -9 8 -2 0 -6 -4
-9 -8z"/>
<path d="M3025 4980 c-3 -6 1 -7 9 -4 18 7 21 14 7 14 -6 0 -13 -4 -16 -10z"/>
<path d="M2353 4955 c0 -8 4 -12 9 -9 5 3 6 10 3 15 -9 13 -12 11 -12 -6z"/>
<path d="M1960 4920 c-9 -6 -10 -10 -3 -10 6 0 15 5 18 10 8 12 4 12 -15 0z"/>
<path d="M2507 4919 c7 -7 15 -10 18 -7 3 3 -2 9 -12 12 -14 6 -15 5 -6 -5z"/>
<path d="M1595 4889 c-4 -6 -5 -12 -2 -15 2 -3 7 2 10 11 7 17 1 20 -8 4z"/>
<path d="M1786 4798 c3 -5 10 -6 15 -3 13 9 11 12 -6 12 -8 0 -12 -4 -9 -9z"/>
<path d="M2036 4798 c3 -5 10 -6 15 -3 13 9 11 12 -6 12 -8 0 -12 -4 -9 -9z"/>
<path d="M3075 4801 c-3 -5 -2 -12 3 -15 5 -3 9 1 9 9 0 17 -3 19 -12 6z"/>
<path d="M1875 4731 c-3 -5 -2 -12 3 -15 5 -3 9 1 9 9 0 17 -3 19 -12 6z"/>
<path d="M1953 4725 c0 -8 4 -12 9 -9 5 3 6 10 3 15 -9 13 -12 11 -12 -6z"/>
<path d="M1633 4635 c0 -8 4 -12 9 -9 5 3 6 10 3 15 -9 13 -12 11 -12 -6z"/>
<path d="M2346 4642 c-3 -5 1 -9 9 -9 8 0 12 4 9 9 -3 4 -7 8 -9 8 -2 0 -6 -4
-9 -8z"/>
<path d="M2676 4642 c-3 -5 1 -9 9 -9 8 0 12 4 9 9 -3 4 -7 8 -9 8 -2 0 -6 -4
-9 -8z"/>
<path d="M2836 4638 c3 -5 10 -6 15 -3 13 9 11 12 -6 12 -8 0 -12 -4 -9 -9z"/>
<path d="M1786 4562 c-3 -5 1 -9 9 -9 8 0 12 4 9 9 -3 4 -7 8 -9 8 -2 0 -6 -4
-9 -8z"/>
<path d="M2353 4485 c0 -8 4 -12 9 -9 5 3 6 10 3 15 -9 13 -12 11 -12 -6z"/>
<path d="M1955 4401 c-3 -5 -2 -12 3 -15 5 -3 9 1 9 9 0 17 -3 19 -12 6z"/>
<path d="M2113 4395 c0 -8 4 -12 9 -9 5 3 6 10 3 15 -9 13 -12 11 -12 -6z"/>
<path d="M2666 4402 c-3 -5 1 -9 9 -9 8 0 12 4 9 9 -3 4 -7 8 -9 8 -2 0 -6 -4
-9 -8z"/>
<path d="M2516 4322 c-3 -5 1 -9 9 -9 8 0 12 4 9 9 -3 4 -7 8 -9 8 -2 0 -6 -4
-9 -8z"/>
<path d="M2346 4242 c-3 -5 1 -9 9 -9 8 0 12 4 9 9 -3 4 -7 8 -9 8 -2 0 -6 -4
-9 -8z"/>
<path d="M2593 4165 c0 -8 4 -12 9 -9 5 3 6 10 3 15 -9 13 -12 11 -12 -6z"/>
<path d="M2116 4162 c-3 -5 1 -9 9 -9 8 0 12 4 9 9 -3 4 -7 8 -9 8 -2 0 -6 -4
-9 -8z"/>
<path d="M2513 4155 c0 -8 4 -12 9 -9 5 3 6 10 3 15 -9 13 -12 11 -12 -6z"/>
<path d="M2113 4085 c0 -8 4 -12 9 -9 5 3 6 10 3 15 -9 13 -12 11 -12 -6z"/>
<path d="M2353 4085 c0 -8 4 -12 9 -9 5 3 6 10 3 15 -9 13 -12 11 -12 -6z"/>
<path d="M2236 4007 c3 -10 9 -15 12 -12 3 3 0 11 -7 18 -10 9 -11 8 -5 -6z"/>
<path d="M2355 3931 c-3 -5 -2 -12 3 -15 5 -3 9 1 9 9 0 17 -3 19 -12 6z"/>
<path d="M2436 3762 c-3 -5 1 -9 9 -9 8 0 12 4 9 9 -3 4 -7 8 -9 8 -2 0 -6 -4
-9 -8z"/>
<path d="M2595 3691 c-3 -5 -2 -12 3 -15 5 -3 9 1 9 9 0 17 -3 19 -12 6z"/>
<path d="M2033 3675 c0 -8 4 -12 9 -9 5 3 6 10 3 15 -9 13 -12 11 -12 -6z"/>
<path d="M2675 3601 c-3 -5 -2 -12 3 -15 5 -3 9 1 9 9 0 17 -3 19 -12 6z"/>
<path d="M2515 3531 c-3 -5 -2 -12 3 -15 5 -3 9 1 9 9 0 17 -3 19 -12 6z"/>
<path d="M2464 3482 c4 -3 14 -7 22 -8 9 -1 13 0 10 4 -4 3 -14 7 -22 8 -9 1
-13 0 -10 -4z"/>
<path d="M2433 3435 c0 -8 4 -12 9 -9 5 3 6 10 3 15 -9 13 -12 11 -12 -6z"/>
<path d="M4275 2481 c-3 -5 -2 -12 3 -15 5 -3 9 1 9 9 0 17 -3 19 -12 6z"/>
<path d="M4390 2401 c0 -6 4 -13 10 -16 6 -3 7 1 4 9 -7 18 -14 21 -14 7z"/>
<path d="M4356 2322 c-3 -5 1 -9 9 -9 8 0 12 4 9 9 -3 4 -7 8 -9 8 -2 0 -6 -4
-9 -8z"/>
<path d="M4755 2161 c-3 -5 -2 -12 3 -15 5 -3 9 1 9 9 0 17 -3 19 -12 6z"/>
<path d="M4435 2091 c-3 -5 -2 -12 3 -15 5 -3 9 1 9 9 0 17 -3 19 -12 6z"/>
<path d="M3880 2040 c-9 -6 -10 -10 -3 -10 6 0 15 5 18 10 8 12 4 12 -15 0z"/>
<path d="M4433 1995 c0 -8 4 -12 9 -9 5 3 6 10 3 15 -9 13 -12 11 -12 -6z"/>
<path d="M3795 1921 c-3 -5 -2 -12 3 -15 5 -3 9 1 9 9 0 17 -3 19 -12 6z"/>
<path d="M3956 1918 c3 -5 10 -6 15 -3 13 9 11 12 -6 12 -8 0 -12 -4 -9 -9z"/>
<path d="M4196 1922 c-3 -5 1 -9 9 -9 8 0 12 4 9 9 -3 4 -7 8 -9 8 -2 0 -6 -4
-9 -8z"/>
<path d="M3796 1838 c3 -5 10 -6 15 -3 13 9 11 12 -6 12 -8 0 -12 -4 -9 -9z"/>
<path d="M3875 1761 c-3 -5 -2 -12 3 -15 5 -3 9 1 9 9 0 17 -3 19 -12 6z"/>
<path d="M3306 1522 c-3 -5 1 -9 9 -9 8 0 12 4 9 9 -3 4 -7 8 -9 8 -2 0 -6 -4
-9 -8z"/>
<path d="M3716 1442 c-3 -5 1 -9 9 -9 8 0 12 4 9 9 -3 4 -7 8 -9 8 -2 0 -6 -4
-9 -8z"/>
<path d="M3150 1400 c0 -5 5 -10 11 -10 5 0 7 5 4 10 -3 6 -8 10 -11 10 -2 0
-4 -4 -4 -10z"/>
<path d="M3316 1362 c-3 -5 1 -9 9 -9 8 0 12 4 9 9 -3 4 -7 8 -9 8 -2 0 -6 -4
-9 -8z"/>
<path d="M4774 5435 c-52 -22 -316 -177 -337 -198 -31 -31 -34 -96 -6 -131 19
-25 358 -254 726 -491 51 -33 93 -62 93 -65 0 -3 -60 -41 -134 -83 l-135 -78
-149 50 c-83 28 -162 51 -177 51 -25 0 -125 -50 -277 -138 -93 -54 -118 -95
-98 -158 12 -35 54 -71 347 -298 101 -79 102 -80 108 -130 4 -28 8 -58 10 -66
1 -8 6 -37 9 -65 4 -27 9 -61 11 -75 9 -60 27 -188 31 -220 12 -90 61 -143
127 -134 40 5 327 169 350 200 10 14 31 90 50 181 l32 158 135 78 c74 42 137
77 140 77 3 0 6 -15 6 -32 1 -40 15 -270 19 -318 2 -19 6 -91 10 -160 4 -69 8
-141 10 -160 2 -19 6 -91 10 -160 4 -69 13 -140 20 -158 17 -38 73 -67 116
-58 31 6 327 174 357 202 27 26 34 48 46 139 4 32 9 67 11 76 2 9 6 40 10 70
3 30 8 65 10 79 3 14 7 39 9 55 2 17 7 50 11 75 4 25 8 56 10 70 2 14 7 45 11
70 4 25 8 56 9 70 2 14 6 43 9 65 3 22 8 58 11 80 3 22 7 51 10 65 2 14 7 45
10 70 11 86 45 303 48 305 1 2 79 46 172 99 135 77 182 110 230 160 134 139
212 340 175 451 -27 82 -111 142 -230 163 -73 14 -242 7 -309 -12 -29 -8 -134
-61 -234 -118 -99 -57 -185 -102 -191 -100 -16 4 -115 42 -151 57 -128 56
-999 394 -1022 398 -16 3 -43 -1 -59 -8z m159 -259 c58 -27 214 -86 226 -86 7
0 9 -5 5 -12 -4 -6 -3 -8 3 -5 10 6 132 -38 230 -84 24 -10 46 -19 51 -19 17
0 237 -92 240 -101 2 -5 7 -7 12 -4 4 3 25 -2 46 -11 22 -9 50 -21 64 -27 14
-6 27 -11 30 -12 37 -9 129 -49 126 -54 -6 -8 79 -5 93 3 6 4 11 2 11 -5 0 -9
4 -8 13 3 14 18 150 98 166 98 6 0 11 3 11 8 0 4 21 18 48 32 26 13 49 27 52
30 13 14 128 69 151 71 14 2 35 -3 45 -11 18 -14 18 -14 5 3 -12 16 -9 17 48
17 34 0 83 -5 108 -11 42 -11 45 -14 39 -40 -8 -42 -47 -120 -57 -113 -5 3 -6
-2 -3 -10 4 -9 -1 -18 -10 -22 -9 -3 -14 -9 -11 -14 2 -4 -6 -16 -19 -27 -13
-12 -25 -25 -27 -30 -2 -6 -85 -57 -184 -114 -257 -147 -257 -147 -270 -240
-3 -24 -12 -87 -20 -139 -8 -52 -16 -114 -20 -137 -3 -23 -8 -57 -11 -75 -3
-18 -7 -48 -9 -67 -2 -19 -7 -50 -10 -70 -6 -40 -25 -164 -30 -196 -1 -11 -3
-33 -4 -48 -1 -18 -5 -26 -12 -21 -8 5 -8 1 0 -13 6 -11 8 -22 6 -24 -2 -3 -6
-18 -9 -34 -20 -123 -19 -117 -30 -210 -4 -27 -8 -59 -10 -70 -3 -11 -5 -30
-5 -43 -1 -16 -5 -21 -13 -16 -10 6 -10 4 0 -8 11 -14 5 -20 -40 -46 -29 -16
-54 -29 -56 -27 -4 4 -10 77 -17 224 -3 69 -8 128 -11 133 -3 4 1 8 8 8 9 0 9
3 2 8 -6 4 -11 36 -12 72 0 36 -1 65 -2 65 -1 0 -4 27 -5 60 -2 33 -6 73 -9
88 -4 19 -2 26 5 21 8 -4 8 -1 1 13 -6 11 -10 51 -9 90 1 39 -1 69 -4 67 -4
-2 -6 23 -5 55 1 33 -2 57 -6 55 -7 -4 -9 6 -8 31 1 16 -63 56 -87 55 -62 -2
-82 -4 -78 -10 2 -3 -17 -17 -43 -30 -26 -14 -87 -49 -135 -78 -49 -29 -93
-49 -99 -46 -6 4 -8 3 -5 -2 5 -8 -45 -40 -149 -93 -52 -27 -82 -75 -95 -156
-7 -41 -15 -72 -18 -70 -3 2 -7 -13 -8 -33 -1 -32 -7 -65 -13 -82 -4 -9 -7
-24 -9 -40 -1 -17 -49 -42 -63 -34 -5 3 -7 0 -6 -7 2 -7 -4 -14 -13 -16 -13
-3 -18 9 -23 66 -4 39 -7 73 -7 76 0 2 -4 18 -9 34 -5 19 -4 33 3 41 9 9 9 11
1 7 -8 -5 -14 12 -18 51 -13 111 -26 159 -51 182 -13 13 -22 27 -18 33 4 6 1
7 -6 3 -13 -9 -54 22 -46 34 3 4 -3 7 -13 6 -9 0 -16 5 -15 11 2 7 -1 12 -6
10 -14 -4 -72 43 -66 53 3 6 0 7 -7 5 -8 -3 -31 10 -52 30 -21 19 -42 35 -46
35 -3 0 -17 11 -29 24 l-22 24 45 22 c41 21 49 22 90 10 27 -7 43 -17 39 -23
-4 -6 -1 -7 6 -3 7 5 24 3 39 -2 15 -6 36 -14 47 -18 11 -4 23 -8 28 -9 4 -2
9 -4 12 -5 3 -1 8 -3 13 -4 4 -1 18 -6 32 -11 14 -4 41 -9 60 -9 19 -1 41 -5
47 -9 8 -5 11 -3 8 5 -4 9 14 24 47 41 29 15 78 43 110 61 31 19 59 32 62 29
3 -4 6 -1 6 5 0 7 15 18 33 27 17 8 46 23 62 32 17 10 57 34 90 53 33 19 66
40 73 47 8 7 18 10 24 7 6 -4 8 -2 4 4 -3 6 -1 14 5 17 5 4 8 13 5 21 -3 7 -1
16 4 19 13 8 -6 65 -32 93 -13 13 -36 30 -51 38 -15 8 -25 18 -23 23 3 4 -1 8
-8 8 -7 0 -93 53 -192 119 -98 65 -187 122 -196 126 -10 4 -18 15 -18 25 0 11
-3 14 -8 7 -5 -7 -18 -3 -39 12 -18 12 -30 24 -28 26 3 3 -1 5 -8 5 -21 0
-127 75 -120 86 3 6 1 7 -5 3 -10 -6 -112 52 -112 64 0 3 22 17 48 31 51 28
63 27 155 -15z"/>
<path d="M4916 5122 c-3 -5 1 -9 9 -9 8 0 12 4 9 9 -3 4 -7 8 -9 8 -2 0 -6 -4
-9 -8z"/>
<path d="M5116 5047 c3 -10 9 -15 12 -12 3 3 0 11 -7 18 -10 9 -11 8 -5 -6z"/>
<path d="M5233 4955 c0 -8 4 -12 9 -9 5 3 6 10 3 15 -9 13 -12 11 -12 -6z"/>
<path d="M6506 4962 c-3 -5 1 -9 9 -9 8 0 12 4 9 9 -3 4 -7 8 -9 8 -2 0 -6 -4
-9 -8z"/>
<path d="M6266 4718 c3 -5 10 -6 15 -3 13 9 11 12 -6 12 -8 0 -12 -4 -9 -9z"/>
<path d="M5947 4679 c7 -7 15 -10 18 -7 3 3 -2 9 -12 12 -14 6 -15 5 -6 -5z"/>
<path d="M6193 4635 c0 -8 4 -12 9 -9 5 3 6 10 3 15 -9 13 -12 11 -12 -6z"/>
<path d="M6026 4558 c3 -5 10 -6 15 -3 13 9 11 12 -6 12 -8 0 -12 -4 -9 -9z"/>
<path d="M5955 4411 c-3 -5 -2 -12 3 -15 5 -3 9 1 9 9 0 17 -3 19 -12 6z"/>
<path d="M5393 4325 c0 -8 4 -12 9 -9 5 3 6 10 3 15 -9 13 -12 11 -12 -6z"/>
<path d="M5953 4245 c0 -8 4 -12 9 -9 5 3 6 10 3 15 -9 13 -12 11 -12 -6z"/>
<path d="M5235 4161 c-3 -5 -2 -12 3 -15 5 -3 9 1 9 9 0 17 -3 19 -12 6z"/>
<path d="M5396 4158 c3 -5 10 -6 15 -3 13 9 11 12 -6 12 -8 0 -12 -4 -9 -9z"/>
<path d="M5306 4082 c-3 -5 1 -9 9 -9 8 0 12 4 9 9 -3 4 -7 8 -9 8 -2 0 -6 -4
-9 -8z"/>
<path d="M5066 3758 c3 -5 10 -6 15 -3 13 9 11 12 -6 12 -8 0 -12 -4 -9 -9z"/>
<path d="M6035 3761 c-3 -5 -2 -12 3 -15 5 -3 9 1 9 9 0 17 -3 19 -12 6z"/>
</g>
</svg>
